<?xml version="1.0" standalone="no"?>
<!DOCTYPE svg PUBLIC "-//W3C//DTD SVG 20010904//EN"
 "http://www.w3.org/TR/2001/REC-SVG-20010904/DTD/svg10.dtd">
<svg version="1.0" xmlns="http://www.w3.org/2000/svg"
 width="225.000000pt" height="225.000000pt" viewBox="0 0 225.000000 225.000000"
 preserveAspectRatio="xMidYMid meet">
<metadata>
Created by potrace 1.14, written by Peter Selinger 2001-2017
</metadata>
<g transform="translate(0.000000,225.000000) scale(0.100000,-0.100000)"
fill="#000000" stroke="none">
<path d="M970 1996 c-269 -57 -486 -262 -556 -526 -23 -85 -23 -243 -1 -330
70 -270 289 -476 564 -529 77 -15 83 -18 83 -41 1 -21 40 -181 66 -268 5 -17
2 -22 -12 -22 -11 0 -91 -2 -179 -3 l-160 -2 -3 -32 -3 -33 390 0 391 0 0 30
0 30 -126 0 -127 0 7 53 c3 28 6 65 6 80 0 20 6 30 20 34 11 3 20 9 20 13 0 4
9 10 20 13 11 3 20 11 20 17 0 7 -7 10 -15 6 -8 -3 -15 -1 -15 3 0 5 7 11 15
15 10 3 14 14 11 28 -3 13 -7 42 -10 65 l-6 42 69 36 c329 173 473 544 342
882 -27 68 -83 161 -134 219 -70 81 -229 177 -349 210 -77 21 -249 26 -328 10z
m287 -82 c117 -26 208 -78 299 -168 45 -45 87 -92 94 -106 10 -20 10 -23 0
-13 -10 9 -17 7 -31 -10 l-18 -22 -1 36 c0 23 -7 42 -20 54 -20 18 -21 18 -35
-1 -9 -10 -22 -32 -31 -47 -24 -44 -25 -28 -4 43 18 60 18 64 2 76 -25 20 -35
17 -83 -20 -24 -19 -45 -34 -46 -32 -2 1 4 25 12 51 11 38 12 51 2 57 -20 13
-27 9 -38 -19 l-11 -28 -12 33 c-11 33 -42 60 -54 48 -3 -4 -13 -27 -21 -52
-9 -25 -20 -45 -24 -45 -4 1 -18 1 -32 1 -14 0 -25 5 -25 10 0 6 11 10 25 10
31 0 33 25 3 35 -22 8 -22 8 5 12 19 3 27 10 27 24 0 16 -7 19 -49 19 -54 0
-61 -7 -62 -68 0 -34 -1 -35 -11 -14 -6 12 -22 25 -35 28 -12 4 -23 11 -23 16
0 6 11 7 25 4 20 -5 25 -3 25 13 0 24 -32 33 -70 20 -52 -19 -51 -65 3 -92
l32 -16 -32 0 c-26 -1 -33 -5 -33 -21 0 -30 71 -28 100 3 21 21 22 21 18 2 -3
-18 4 -21 57 -25 33 -3 66 -9 73 -13 9 -6 16 1 23 22 13 36 25 33 34 -9 8 -35
68 -68 90 -50 18 15 47 1 40 -20 -4 -12 5 -24 30 -41 19 -13 35 -28 35 -34 1
-5 12 4 25 20 l25 30 0 -47 c0 -37 5 -51 20 -60 11 -7 20 -23 20 -35 0 -12 12
-31 27 -42 l26 -21 24 22 c21 19 22 24 9 37 -12 12 -18 12 -30 1 -23 -18 -22
13 1 35 16 16 18 16 34 -3 9 -12 19 -19 22 -16 9 9 27 -66 34 -137 8 -96 -4
-196 -28 -220 -28 -28 -39 -16 -39 41 0 235 -178 447 -423 505 -232 55 -482
-43 -609 -240 -46 -70 -69 -144 -77 -240 -6 -70 -6 -70 -36 -70 -26 0 -32 5
-43 40 -17 49 -11 239 10 304 l13 43 52 -46 c28 -25 53 -46 56 -46 11 0 15 45
5 57 -8 10 -6 13 11 13 11 0 21 6 21 14 0 7 10 20 23 29 17 12 19 18 10 28
-18 19 3 42 27 29 13 -7 21 -5 30 5 7 8 18 15 25 15 8 0 26 11 42 24 15 13 37
25 48 27 12 3 21 14 23 27 3 22 42 33 42 12 0 -16 40 -12 46 5 4 9 -6 29 -22
48 -16 18 -36 43 -45 57 -15 22 -18 23 -48 10 l-33 -13 7 -56 c6 -46 5 -53 -7
-44 -7 6 -29 13 -48 16 -31 3 -32 5 -12 12 25 8 28 18 10 33 -15 12 -48 1 -68
-22 -10 -13 -11 -24 -4 -44 7 -22 17 -28 49 -33 l40 -5 -30 -13 c-19 -8 -36
-9 -45 -4 -84 51 -78 49 -102 26 l-21 -22 26 -51 c30 -58 31 -60 18 -60 -6 0
-16 12 -23 28 -10 19 -21 27 -40 27 l-27 -1 21 36 c51 84 154 179 250 230 122
65 294 87 435 54z m-42 -284 c87 -14 193 -70 259 -137 101 -101 146 -208 146
-349 0 -153 -65 -290 -186 -387 l-59 -48 -2 28 c-2 15 -8 64 -14 108 -9 69 -9
84 5 110 23 44 20 57 -23 99 -22 22 -45 52 -52 67 -11 28 -55 49 -100 49 -30
0 -40 23 -24 54 20 38 20 116 1 116 -9 0 -16 12 -18 32 -4 38 -35 51 -82 35
-22 -8 -31 -7 -34 1 -9 27 -20 10 -15 -22 3 -19 1 -36 -6 -40 -6 -4 -11 -16
-11 -27 0 -10 -4 -19 -8 -19 -7 0 -9 -57 -3 -118 1 -17 43 -33 56 -21 15 14
35 10 35 -6 0 -25 -78 -55 -141 -55 l-57 0 2 86 c1 47 -2 88 -6 90 -14 9 -9
19 15 29 14 7 22 19 22 35 0 20 -7 26 -40 36 -24 7 -42 7 -46 2 -3 -5 -25 -11
-49 -12 -23 -2 -46 -9 -50 -17 -12 -19 7 -48 37 -55 23 -6 24 -8 10 -19 -22
-16 -11 -25 29 -25 38 0 46 -19 28 -65 -8 -19 -10 -52 -6 -90 7 -56 9 -60 37
-66 17 -3 65 -4 108 -1 65 4 77 3 77 -11 0 -8 22 -34 50 -57 60 -50 74 -94 42
-135 -11 -14 -30 -57 -41 -95 -12 -38 -26 -72 -31 -75 -5 -3 -38 2 -72 10
-161 42 -285 156 -348 320 -32 85 -32 234 0 320 89 235 316 366 565 325z m469
-46 c9 -23 7 -36 -4 -29 -5 3 -19 1 -30 -5 -24 -13 -25 -7 -4 25 19 29 29 31
38 9z m-1148 -41 c-8 -15 -15 -25 -16 -21 0 12 23 58 27 54 3 -2 -2 -17 -11
-33z m54 -14 c0 -6 -4 -7 -10 -4 -5 3 -10 11 -10 16 0 6 5 7 10 4 6 -3 10 -11
10 -16z m528 -236 c-2 -10 -7 -21 -13 -25 -6 -5 -5 -12 4 -20 8 -7 11 -8 8 -2
-7 13 17 27 27 17 25 -26 -17 -90 -52 -79 -38 13 -55 89 -24 112 25 20 53 18
50 -3z m41 -127 c7 -8 11 -27 9 -43 -2 -23 -9 -28 -42 -35 -22 -5 -45 -13 -51
-18 -7 -6 -21 -7 -30 -3 -13 4 -16 3 -11 -5 7 -11 -49 -17 -144 -15 -48 1 -50
3 -50 36 0 43 10 53 24 24 24 -47 206 -16 231 40 8 19 19 27 46 32 4 0 12 -5
18 -13z m77 -42 c-3 -9 -6 -22 -6 -30 0 -7 -6 -11 -14 -8 -8 3 -16 -2 -19 -13
-3 -10 -5 1 -6 25 -1 39 1 42 25 42 20 0 25 -4 20 -16z m77 -58 c48 -56 59
-93 33 -115 -18 -15 -32 3 -28 36 2 14 -11 35 -37 61 -27 26 -39 46 -35 56 9
24 15 21 67 -38z m-735 -20 c-4 -25 -43 -34 -51 -12 -8 20 19 47 39 39 8 -3
14 -15 12 -27z m1160 8 c4 -27 -26 -40 -46 -20 -13 13 -13 18 -2 31 18 21 44
15 48 -11z m-563 -1 c0 -13 -69 -53 -91 -53 -32 0 -19 50 16 63 25 10 75 3 75
-10z m188 -485 c3 -21 2 -38 -4 -38 -5 0 -9 19 -9 42 0 49 5 47 13 -4z m-36 0
c-3 -7 -5 -2 -5 12 0 14 2 19 5 13 2 -7 2 -19 0 -25z m13 -88 c0 -11 -4 -20
-10 -20 -5 0 -10 9 -10 20 0 11 5 20 10 20 6 0 10 -9 10 -20z m-62 -232 c3
-14 -3 -18 -27 -18 -25 0 -31 4 -31 21 0 16 5 20 27 17 17 -2 29 -10 31 -20z"/>
<path d="M1060 1261 c0 -12 5 -21 10 -21 6 0 10 6 10 14 0 8 -4 18 -10 21 -5
3 -10 -3 -10 -14z"/>
<path d="M1105 1220 c-3 -5 -2 -10 4 -10 5 0 13 5 16 10 3 6 2 10 -4 10 -5 0
-13 -4 -16 -10z"/>
</g>
</svg>
